<?xml version="1.0" encoding="UTF-8" standalone="no"?>
<!-- Created with Inkscape (http://www.inkscape.org/) -->

<svg
   xmlns:dc="http://purl.org/dc/elements/1.1/"
   xmlns:cc="http://creativecommons.org/ns#"
   xmlns:rdf="http://www.w3.org/1999/02/22-rdf-syntax-ns#"
   xmlns:svg="http://www.w3.org/2000/svg"
   xmlns="http://www.w3.org/2000/svg"
   xmlns:sodipodi="http://sodipodi.sourceforge.net/DTD/sodipodi-0.dtd"
   xmlns:inkscape="http://www.inkscape.org/namespaces/inkscape"
   width="295.84058mm"
   height="326.42242mm"
   viewBox="0 0 295.84058 326.42242"
   version="1.1"
   id="svg879"
   inkscape:version="0.92.5 (2060ec1f9f, 2020-04-08)"
   sodipodi:docname="hoppy_silhouette_gray.svg">
  <defs
     id="defs873">
    <inkscape:path-effect
       effect="bspline"
       id="path-effect894"
       is_visible="true"
       weight="33.333333"
       steps="2"
       helper_size="0"
       apply_no_weight="true"
       apply_with_weight="true"
       only_selected="false" />
  </defs>
  <sodipodi:namedview
     id="base"
     pagecolor="#ffffff"
     bordercolor="#666666"
     borderopacity="1.0"
     inkscape:pageopacity="0.0"
     inkscape:pageshadow="2"
     inkscape:zoom="0.35355339"
     inkscape:cx="674.8664"
     inkscape:cy="443.1059"
     inkscape:document-units="mm"
     inkscape:current-layer="layer1"
     showgrid="false"
     inkscape:snap-global="false"
     fit-margin-top="0"
     fit-margin-left="0"
     fit-margin-right="0"
     fit-margin-bottom="0"
     inkscape:window-width="1920"
     inkscape:window-height="1021"
     inkscape:window-x="0"
     inkscape:window-y="31"
     inkscape:window-maximized="1" />
  <metadata
     id="metadata876">
    <rdf:RDF>
      <cc:Work
         rdf:about="">
        <dc:format>image/svg+xml</dc:format>
        <dc:type
           rdf:resource="http://purl.org/dc/dcmitype/StillImage" />
        <dc:title></dc:title>
      </cc:Work>
    </rdf:RDF>
  </metadata>
  <g
     inkscape:label="Layer 1"
     inkscape:groupmode="layer"
     id="layer1"
     transform="translate(-67.51872,-0.97214946)">
    <path
       style="fill:#808080;stroke:none;stroke-width:0.26458332px;stroke-linecap:butt;stroke-linejoin:miter;stroke-opacity:1;opacity:1"
       d="m 110.77616,94.120208 c 0.30872,-1.278973 0.92608,-3.836612 0.9922,-7.386123 0.0661,-3.549512 -0.419,-8.092077 -0.79381,-12.567839 -0.37481,-4.475763 -0.63941,-8.885711 -0.99218,-13.074829 -0.35277,-4.189117 -0.79377,-8.158089 -0.9922,-11.200754 -0.19842,-3.042666 -0.15432,-5.159457 10e-6,-7.562593 0.15434,-2.403135 0.41895,-5.093407 0.79377,-7.95957 0.37481,-2.866163 0.85993,-5.909196 1.38908,-8.665157 0.52915,-2.75596 1.10247,-5.225647 1.6757,-7.496527 0.57324,-2.27088 1.14657,-4.343708 1.91824,-6.28385 0.77167,-1.9401431 1.74196,-3.7483991 2.75612,-5.4019071 1.01417,-1.653508 2.07269,-3.153077 2.86643,-4.0790334 0.79374,-0.9259564 1.32302,-1.2788083 1.74179,-1.410999 0.41876,-0.13219079 0.72762,-0.043945 1.23447,0.2866093 0.50685,0.3305543 1.2128,0.9041397 2.11674,1.9844491 0.90393,1.080308 2.00641,2.667877 2.97656,4.167196 0.97015,1.499318 1.80797,2.9103821 2.55763,4.5640441 0.74967,1.653661 1.41109,3.549736 1.96232,5.225482 0.55124,1.675746 0.99218,3.130834 1.47728,4.938935 0.4851,1.808102 1.01421,3.968616 1.4993,5.931021 0.48509,1.962405 0.92602,3.726138 1.38907,5.997279 0.46305,2.271141 0.94807,5.048973 1.32292,7.71694 0.37484,2.667968 0.6394,5.225412 0.92604,7.628819 0.28665,2.403408 0.5953,4.65216 0.66147,6.416076 0.0662,1.763917 -0.1102,3.04261 0.63973,2.380844 0.74992,-0.661767 2.42523,-3.262903 3.90238,-5.930628 1.47716,-2.667725 2.75613,-5.402076 4.63014,-8.753229 1.87401,-3.351153 4.34375,-7.320364 6.12964,-10.186612 1.7859,-2.866248 2.88841,-4.630276 4.78438,-7.033293 1.89597,-2.403017 4.58638,-5.446259 7.62894,-8.577004 3.04257,-3.130745 6.43837,-6.350139 10.07625,-8.8194571 3.63789,-2.469317 7.51875,-4.189245 10.36294,-5.159323 2.84419,-0.9700772 4.65232,-1.1905808 6.43807,-1.1244252 1.78575,0.066156 3.54992,0.4189894 4.63018,0.7937722 1.08026,0.374783 1.47718,0.771705 2.09451,1.697706 0.61734,0.926001 1.45519,2.381204 2.20486,4.409703 0.74968,2.0284981 1.4111,4.6300841 1.85209,7.0775351 0.44099,2.447452 0.66146,4.740343 0.50713,7.474504 -0.15433,2.734161 -0.68344,5.908832 -1.14649,8.841426 -0.46304,2.932594 -0.85988,5.62227 -1.60956,8.621052 -0.74969,2.998783 -1.85199,6.30571 -3.19703,10.296734 -1.34504,3.991024 -2.93239,8.664877 -3.94663,11.575335 -1.01425,2.910457 -1.45519,4.056907 -2.64606,6.460716 -1.19087,2.403809 -3.13061,6.062861 -4.45356,8.57646 -1.32295,2.513598 -2.02844,3.880493 -3.06484,5.269744 -1.03639,1.389251 -2.40309,2.800036 -3.79228,4.10103 -1.38918,1.300994 -2.80002,2.491391 -3.92461,3.615953 -1.1246,1.124562 -1.96227,2.182678 -3.26338,3.836638 -1.30112,1.65395 -3.06452,3.90229 -4.2166,5.385102 -1.15208,1.48282 -1.6922,2.1993 -2.17187,2.96565 -0.47967,0.76635 -0.89843,1.58182 -1.27882,2.293 -0.3804,0.71119 -0.72202,1.31729 -1.11349,1.98996 -0.39147,0.67268 -0.83222,1.41092 -1.16306,2.2986 -0.33083,0.88768 -0.55123,1.92353 -0.98124,3.19705 -0.43,1.27352 -1.06922,2.7834 -1.45514,4.13402 -0.38592,1.35062 -0.51818,2.54099 -0.56229,3.44509 -0.0441,0.90409 -3e-5,1.5213 0.26463,2.40353 0.26466,0.88223 0.74954,2.02831 1.91825,3.50573 1.1687,1.47742 3.02058,3.28521 5.62235,5.20345 2.60177,1.91825 5.95317,3.94673 8.81951,5.31373 2.86634,1.36701 5.24764,2.07258 8.29023,2.77811 3.04259,0.70552 6.74702,1.41113 11.02432,2.18281 4.2773,0.77168 9.12827,1.60957 13.36155,2.05052 4.23328,0.44096 7.84941,0.48506 11.64162,0.48506 3.79222,-1e-5 7.76126,-0.0441 11.90626,-0.11025 4.14499,-0.0661 8.46682,-0.15434 13.22913,0.13229 4.76231,0.28662 9.96611,0.94812 14.6844,1.8521 4.71828,0.90398 8.9518,2.05055 12.76613,3.15296 3.81433,1.10241 7.20996,2.16079 9.78956,3.26319 2.57959,1.1024 4.34356,2.24898 6.28377,3.83643 1.94021,1.58744 4.05696,3.61599 6.08542,5.68855 2.02846,2.07255 3.96874,4.18922 5.56726,6.08539 1.59852,1.89618 2.85529,3.57186 4.04592,5.26962 1.19063,1.69775 2.31508,3.4175 3.71521,5.41295 1.40012,1.99545 3.07575,4.26637 4.57507,6.30588 1.49932,2.03951 2.82221,3.84746 3.75927,5.26959 0.93707,1.42213 1.48827,2.45839 2.5136,4.20035 1.02533,1.74196 2.5245,4.18913 4.29944,7.45238 1.77494,3.26324 3.8254,7.3421 5.24754,10.2856 1.42215,2.94351 2.21588,4.75145 2.8994,6.2508 0.68353,1.49935 1.25675,2.6899 1.86312,4.23337 0.60637,1.54347 1.24571,3.43947 1.92925,5.5893 0.68354,2.14983 1.41109,4.55294 1.96233,7.35319 0.55124,2.80026 0.92604,5.99708 1.16858,9.10603 0.24255,3.10895 0.35279,6.12939 0.36382,8.27917 0.011,2.14978 -0.0772,3.42849 -0.20943,4.46486 -0.13229,1.03637 -0.30864,1.82993 -0.66144,2.56869 -0.3528,0.73877 -0.88177,1.42202 -0.59485,1.48811 0.28692,0.0661 1.38855,-0.48472 2.49098,-1.03594 -0.022,0.19844 -0.044,0.39658 0.47502,0.0432 0.51906,-0.35342 1.57582,-1.25607 2.18198,-1.59776 0.60616,-0.34169 0.76055,-0.12114 1.25691,-0.28664 0.49635,-0.16551 1.33401,-0.7166 2.03941,-1.42205 0.7054,-0.70546 1.27887,-1.56565 1.84107,-2.12777 0.56221,-0.56213 1.11362,-0.8268 1.56548,-1.1685 0.45185,-0.34171 0.80483,-0.76087 1.02513,-0.86008 0.22031,-0.0992 0.30856,0.12142 0.56244,0.14341 0.25388,0.022 0.67255,-0.15429 0.94801,-0.40781 0.27546,-0.25352 0.40785,-0.5845 0.58418,-0.88202 0.17634,-0.29751 0.39705,-0.56236 0.63936,-0.61739 0.24231,-0.055 0.50718,0.0995 0.67252,0.0111 0.16535,-0.0883 0.23151,-0.41915 0.42992,-0.67255 0.1984,-0.25341 0.52945,-0.42997 0.81584,-0.44096 0.28639,-0.011 0.52916,0.14349 0.78267,0.31985 0.25351,0.17635 0.51817,0.37484 0.61744,0.55105 0.0993,0.17621 0.0331,0.33057 0.14375,0.34154 0.11063,0.011 0.39667,-0.12105 0.76012,-0.088 0.36346,0.0331 0.80492,0.23173 1.01434,0.56223 0.20942,0.3305 0.18738,0.79365 -0.009,1.30283 -0.19671,0.50918 -0.56784,1.06388 -0.56638,1.45077 0.001,0.38689 0.37542,0.60504 0.3444,0.88549 -0.031,0.28046 -0.46766,0.62353 -0.68608,0.91982 -0.21841,0.29629 -0.21841,0.54558 -0.0623,0.7641 0.15611,0.21852 0.46758,0.40541 0.68578,0.7794 0.21819,0.37399 0.34294,0.9354 0.49888,1.37205 0.15594,0.43665 0.34296,0.74836 0.46769,1.06015 0.12474,0.31179 0.18709,0.62354 0.24948,0.99785 0.0624,0.37432 0.1247,0.81055 0.34308,1.24731 0.21838,0.43676 0.59236,0.87307 0.77947,1.20036 0.1871,0.32729 0.1871,0.54555 0.1871,0.99809 0,0.45255 0,1.13771 -0.0468,1.83941 -0.0468,0.7017 -0.14029,1.41862 -0.34298,2.10472 -0.20269,0.68611 -0.51437,1.34066 -0.5298,1.60575 -0.0154,0.2651 0.26505,0.14043 0.40521,0.1403 0.14016,-1.3e-4 0.14016,0.12476 0.0933,0.32771 -0.0468,0.20295 -0.14017,0.48297 -0.49905,1.02911 -0.35888,0.54614 -0.9818,1.35594 -1.48083,2.26037 -0.49903,0.90443 -0.87307,1.90188 -2.18299,3.83561 -1.30993,1.93372 -3.55427,4.80149 -4.3805,6.14238 -0.82623,1.34089 -0.23385,1.15382 -0.43632,1.88604 -0.20248,0.73222 -1.20081,2.38571 -1.96483,3.7734 -0.76401,1.38768 -1.29399,2.51 -2.15161,3.75747 -0.85762,1.24747 -2.04218,2.61906 -3.36751,3.89764 -1.32534,1.27858 -2.79057,2.46324 -4.05351,3.18052 -1.26294,0.71728 -2.32291,0.96669 -2.66596,0.51426 -0.34304,-0.45243 0.031,-1.6058 0.0311,-1.69948 6e-5,-0.0937 -0.37422,0.87322 -1.30981,1.82447 -0.93559,0.95125 -2.43181,1.88638 -3.77272,2.61923 -1.34092,0.73284 -2.52557,1.26282 -3.16493,1.71492 -0.63936,0.45209 -0.73287,0.82616 -0.67049,1.2786 0.0624,0.45243 0.28048,0.9821 -0.18722,1.62138 -0.46769,0.63927 -1.62111,1.38744 -3.2896,2.24509 -1.66849,0.85765 -3.8506,1.82402 -5.44093,2.54122 -1.59032,0.71721 -2.58798,1.18486 -4.72445,1.63711 -2.13646,0.45226 -5.40947,0.88865 -9.13586,1.06017 -3.72639,0.17151 -7.90433,0.078 -12.37902,-0.24945 -4.4747,-0.32741 -9.24517,-0.88863 -13.3924,-1.48109 -4.14723,-0.59245 -7.67055,-1.21605 -10.05607,-2.07359 -2.38551,-0.85753 -3.63269,-1.94882 -4.95777,-2.2607 -1.32507,-0.31187 -2.72822,0.15585 -4.41224,0.95106 -1.68402,0.79522 -3.648,1.91751 -5.45666,2.99335 -1.80866,1.07584 -3.46101,2.10465 -6.00262,3.19615 -2.54161,1.0915 -5.97092,2.245 -10.81993,3.32083 -4.84902,1.07584 -11.11591,2.07356 -16.54162,2.35422 -5.42571,0.28066 -10.00917,-0.15586 -13.96933,-0.85746 -3.96016,-0.70159 -7.2964,-1.66817 -9.07386,-2.57256 -1.77746,-0.9044 -1.99572,-1.74625 -2.08925,-1.71521 -0.0935,0.031 -0.0624,0.93575 -0.0312,1.84001 -0.56127,0.0624 -1.12224,0.12469 -1.98018,-0.40566 -0.85793,-0.53036 -2.01105,-1.65232 -2.65029,-2.61905 -0.63923,-0.96672 -0.76396,-1.77745 -0.46772,-2.75955 0.29624,-0.9821 1.01361,-2.13613 1.62155,-3.32086 0.60794,-1.18473 1.10698,-2.40114 2.167,-3.80407 1.06003,-1.40293 2.68189,-2.99361 4.31877,-4.59932 1.63689,-1.6057 3.28978,-3.22741 4.83317,-4.58369 1.54338,-1.35629 2.97795,-2.44781 4.24069,-3.35199 1.26274,-0.90417 2.35433,-1.6215 3.53905,-2.35415 1.18471,-0.73265 2.46351,-1.48121 3.69503,-2.0268 1.23152,-0.54558 2.41671,-0.88866 3.16502,-1.13813 0.74831,-0.24946 1.06021,-0.40542 1.10691,-0.79486 0.0467,-0.38945 -0.17174,-1.01356 -0.39001,-1.63718 -0.68599,-0.21827 -1.37183,-0.4365 -2.72844,-0.73277 -1.35661,-0.29628 -3.38291,-0.67037 -5.59692,-1.07575 -2.214,-0.40538 -4.61474,-0.84188 -7.23405,-0.79513 -2.61931,0.0467 -5.45658,0.57679 -8.06035,1.62138 -2.60378,1.04459 -4.97332,2.6035 -7.0782,4.2562 -2.10488,1.6527 -3.94435,3.39863 -6.03369,5.67507 -2.08935,2.27644 -4.42762,5.08236 -6.64161,7.81086 -2.21399,2.72851 -4.30294,5.37867 -6.29864,7.68622 -1.99569,2.30754 -3.89755,4.27175 -5.61266,6.2363 -1.7151,1.96456 -3.24278,3.92871 -3.86653,5.16052 -0.62374,1.23181 -0.34315,1.73065 -2.12065,2.43231 -1.77751,0.70167 -5.61215,1.60577 -8.73042,1.97999 -3.11828,0.37421 -5.51906,0.21833 -7.3589,-0.17146 -1.83984,-0.38978 -3.11814,-1.01334 -4.3343,-1.74616 -1.21616,-0.73281 -2.36977,-1.57463 -3.10259,-2.40104 -0.73282,-0.82642 -1.04462,-1.63711 -0.45215,-2.88428 0.59247,-1.24718 2.08943,-2.93126 3.21184,-4.77082 1.12241,-1.83956 1.87089,-3.83552 2.47886,-5.84655 0.60798,-2.01103 1.07577,-4.03817 1.35637,-6.11155 0.2806,-2.07339 0.37416,-4.19406 0.60801,-6.28309 0.23386,-2.08903 0.60809,-4.14728 0.87311,-5.67509 0.26503,-1.5278 0.42096,-2.52575 -0.15567,-3.33621 -0.57662,-0.81045 -1.88663,-1.43426 -2.96251,-2.63491 -1.07589,-1.20064 -1.91772,-2.97784 -2.61928,-4.70837 -0.70156,-1.73054 -1.26286,-3.41445 -2.01116,-4.989 -0.7483,-1.57454 -1.68385,-3.04022 -2.2607,-4.19397 -0.57686,-1.15375 -0.79514,-1.99568 -1.49643,-1.88669 -0.70129,0.10898 -1.88644,1.16938 -3.13383,1.94904 -1.24739,0.77966 -2.5567,1.27845 -3.8197,1.83977 -1.263,0.56132 -2.47878,1.18479 -3.39875,1.85523 -0.91997,0.67043 -1.54343,1.38742 -1.98011,2.29189 -0.43668,0.90446 -0.68603,1.99537 -1.09144,3.21164 -0.40541,1.21626 -0.96651,2.55668 -1.54338,3.57018 -0.57688,1.0135 -1.16918,1.69933 -1.88649,2.29193 -0.71731,0.59259 -1.55886,1.0913 -2.36973,1.43438 -0.81086,0.34309 -1.59011,0.53011 -3.27446,0.54571 -1.68434,0.0156 -4.27137,-0.14024 -6.76603,-0.53003 -2.49466,-0.38978 -4.895414,-1.01336 -7.202937,-1.71497 -2.307528,-0.70161 -4.521237,-1.48108 -6.2051,-2.16709 -1.683863,-0.68601 -2.837496,-1.27841 -3.695075,-1.90211 -0.857579,-0.62369 -1.4188,-1.27845 -1.715014,-1.98014 -0.296215,-0.70169 -0.327396,-1.45007 -0.01561,-2.58797 0.31178,-1.13789 0.966806,-2.66629 1.933344,-4.24077 0.966538,-1.57448 2.245242,-3.19625 3.757428,-4.52132 1.512186,-1.32507 3.258659,-2.35424 5.160543,-3.5858 1.901882,-1.23155 3.960231,-2.66615 5.753061,-3.75741 1.79282,-1.09127 3.32094,-1.83973 4.75514,-2.68156 1.4342,-0.84184 2.77528,-1.77748 3.96002,-2.83755 1.18475,-1.06007 2.21398,-2.24523 3.19607,-3.47675 0.98209,-1.23152 1.91775,-2.51026 2.57244,-4.20941 0.65468,-1.69915 1.02895,-3.81998 1.26279,-5.3478 0.23384,-1.52781 0.3274,-2.46338 -0.18696,-3.83498 -0.51436,-1.37161 -1.63724,-3.18069 -3.35216,-5.51922 -1.71493,-2.33852 -4.02244,-5.20732 -6.03362,-7.45236 -2.01118,-2.24504 -3.72618,-3.8665 -5.19174,-6.22078 -1.46556,-2.35428 -2.68163,-5.44122 -3.414379,-7.68629 -0.73275,-2.24507 -0.98221,-3.6483 -1.16929,-4.724 -0.18708,-1.07571 -0.31182,-1.82418 -0.5924,-2.69707 -0.28058,-0.87289 -0.717248,-1.87098 -1.403029,-1.87112 -0.685781,-1.4e-4 -1.621341,0.99779 -3.305494,1.27852 -1.684154,0.28073 -4.11564,-0.15569 -6.579137,-1.02882 -2.463497,-0.87313 -4.957798,-2.18264 -7.390039,-3.89768 -2.43224,-1.71503 -4.80194,-3.83529 -6.548113,-5.45674 -1.746173,-1.62144 -2.868695,-2.74397 -3.710618,-4.33431 -0.841924,-1.59034 -1.403188,-3.64832 -1.621431,-5.61272 -0.218243,-1.9644 -0.09351,-3.83545 0.09357,-6.14267 0.187073,-2.30722 0.436563,-5.0516 0.904271,-7.92015 0.467709,-2.86855 1.153773,-5.86228 2.089224,-8.23198 0.935451,-2.3697 2.120468,-4.11604 3.149377,-5.64381 1.028909,-1.52778 1.902141,-2.83763 2.588047,-4.02241 0.685906,-1.18477 1.184928,-2.24519 1.621378,-3.49224 0.436451,-1.24704 0.810739,-2.68181 0.8419,-4.73945 0.03116,-2.05765 -0.280722,-4.73984 -0.187167,-8.10729 0.09355,-3.36745 0.5925,-7.42139 1.465587,-10.88244 0.873087,-3.46104 2.120434,-6.32994 3.461204,-8.66844 1.340769,-2.3385 2.775273,-4.14722 4.458946,-5.83086 1.683672,-1.68365 3.61723,-3.24297 5.145021,-4.61488 1.527791,-1.37192 2.650492,-2.55699 4.271715,-3.71052 1.621221,-1.15353 3.742047,-2.276332 5.363397,-3.055812 1.62135,-0.77948 2.74405,-1.21608 3.92192,-1.7374 1.17787,-0.52132 2.41177,-1.12773 3.02839,-1.43077 0.61662,-0.30304 0.61658,-0.30304 0.9253,-1.58202 z"
       id="path892"
       inkscape:connector-curvature="0"
       inkscape:export-xdpi="96"
       inkscape:export-ydpi="96" />
  </g>
</svg>
